<svg xmlns="http://www.w3.org/2000/svg" width="19.631" height="16.567" viewBox="0 0 19.631 16.567"><defs><style>.a{fill:#fff;stroke:#fff;stroke-width:0.5px;}</style></defs><g transform="translate(0.25 -40.75)"><path class="a" d="M17.45,43.989H14.21L13.792,41.9a1.124,1.124,0,0,0-1.1-.9H6.438a1.124,1.124,0,0,0-1.1.9l-.418,2.088H1.681A1.683,1.683,0,0,0,0,45.671v9.715a1.683,1.683,0,0,0,1.681,1.681H17.45a1.683,1.683,0,0,0,1.681-1.681V45.671A1.683,1.683,0,0,0,17.45,43.989ZM6.438,42.121h6.255l.374,1.868h-7ZM18.01,55.386a.561.561,0,0,1-.56.56H1.681a.561.561,0,0,1-.56-.56V45.671a.561.561,0,0,1,.56-.56H17.45a.561.561,0,0,1,.56.56Z" transform="translate(0 0)"/><path class="a" d="M149.148,185a4.148,4.148,0,1,0,4.148,4.148A4.152,4.152,0,0,0,149.148,185Zm0,7.174a3.027,3.027,0,1,1,3.027-3.027A3.03,3.03,0,0,1,149.148,192.174Z" transform="translate(-139.582 -138.619)"/><path class="a" d="M67.354,185H65.56a.56.56,0,1,0,0,1.121h1.794a.56.56,0,1,0,0-1.121Z" transform="translate(-62.571 -138.619)"/></g></svg>