<svg xmlns="http://www.w3.org/2000/svg" width="23.766" height="23.766" viewBox="0 0 23.766 23.766"><defs><style>.a{fill:#3d5564;stroke:#3d5564;stroke-width:0.5px;}</style></defs><g transform="translate(0.25 0.25)"><path class="a" d="M11.633,0A11.633,11.633,0,1,0,23.266,11.633,11.646,11.646,0,0,0,11.633,0Zm0,21.463a9.831,9.831,0,1,1,9.831-9.831A9.842,9.842,0,0,1,11.633,21.463Z"/><g transform="translate(6.226 6.145)"><path class="a" d="M146.934,139.743h-3.6v-3.6a.9.9,0,1,0-1.8,0v3.6h-3.6a.9.9,0,1,0,0,1.8h3.6v3.6a.9.9,0,0,0,1.8,0v-3.6h3.6a.9.9,0,0,0,0-1.8Z" transform="translate(-137.022 -135.238)"/></g></g></svg>