<svg xmlns="http://www.w3.org/2000/svg" width="25.668" height="25.355" viewBox="0 0 25.668 25.355">
    <defs><style>.a{fill:#3d5564;stroke:#3d5564;stroke-width:0.7px;}</style></defs>
    <g transform="translate(0.35 0.35)">
        <path class="a" d="M22.87,52.243a.617.617,0,0,0-.617.617v5.479A1.853,1.853,0,0,1,20.4,60.191H3.086a1.853,1.853,0,0,1-1.851-1.851V42.258a1.854,1.854,0,0,1,1.851-1.851H8.565a.617.617,0,1,0,0-1.234H3.086A3.089,3.089,0,0,0,0,42.258V58.34a3.089,3.089,0,0,0,3.086,3.086H20.4a3.089,3.089,0,0,0,3.086-3.086V52.86A.617.617,0,0,0,22.87,52.243Zm0,0" transform="translate(0 -36.771)"/><path class="a" d="M124.756,1.074a2.777,2.777,0,0,0-3.927,0l-11.01,11.01a.617.617,0,0,0-.158.272l-1.448,5.227a.617.617,0,0,0,.759.76l5.227-1.448a.617.617,0,0,0,.272-.158l11.01-11.01a2.78,2.78,0,0,0,0-3.927ZM111.163,12.485l9.011-9.011L123.08,6.38l-9.011,9.011Zm-.58,1.165,2.322,2.322-3.211.89Zm14.025-8.8-.655.654L121.047,2.6l.655-.654a1.543,1.543,0,0,1,2.182,0l.724.724A1.545,1.545,0,0,1,124.608,4.853Zm0,0" transform="translate(-101.513 -0.261)"/>
    </g>
</svg>