<svg xmlns="http://www.w3.org/2000/svg" width="65.479" height="78.483" viewBox="0 0 65.479 78.483"><defs><style>.a{fill:#afc3d2;}</style></defs><g transform="translate(0)"><path class="a" d="M105.935,37.806A18.29,18.29,0,0,0,119.3,32.267,18.29,18.29,0,0,0,124.838,18.9,18.293,18.293,0,0,0,119.3,5.537a18.9,18.9,0,0,0-26.731,0A18.291,18.291,0,0,0,87.031,18.9,18.29,18.29,0,0,0,92.57,32.268,18.3,18.3,0,0,0,105.935,37.806Zm0,0" transform="translate(-73.691 0)"/><path class="a" d="M65.32,269.756a46.689,46.689,0,0,0-.636-4.959,39.069,39.069,0,0,0-1.22-4.986,24.628,24.628,0,0,0-2.05-4.65,17.548,17.548,0,0,0-3.091-4.028,13.628,13.628,0,0,0-4.44-2.79,15.345,15.345,0,0,0-5.668-1.026c-.8,0-1.576.329-3.072,1.3-.921.6-2,1.3-3.2,2.063a18.339,18.339,0,0,1-4.141,1.825,16.081,16.081,0,0,1-10.13,0,18.3,18.3,0,0,1-4.138-1.824c-1.191-.761-2.269-1.456-3.2-2.065-1.495-.974-2.27-1.3-3.071-1.3a15.324,15.324,0,0,0-5.667,1.027,13.616,13.616,0,0,0-4.441,2.79,17.548,17.548,0,0,0-3.09,4.027,24.674,24.674,0,0,0-2.05,4.651A39.162,39.162,0,0,0,.793,264.8a46.527,46.527,0,0,0-.636,4.961c-.1,1.5-.157,3.06-.157,4.635a13.032,13.032,0,0,0,3.87,9.859,13.933,13.933,0,0,0,9.974,3.638h37.79a13.93,13.93,0,0,0,9.973-3.638,13.026,13.026,0,0,0,3.871-9.86C65.478,272.81,65.425,271.25,65.32,269.756Zm0,0" transform="translate(0 -209.406)"/></g></svg>